<svg width="932" height="650" viewBox="0 0 932 650" fill="none" xmlns="http://www.w3.org/2000/svg">
<path d="M8.064 27.288C6.928 27.288 5.904 27.072 4.992 26.64C4.096 26.208 3.344 25.64 2.736 24.936C2.144 24.232 1.72 23.472 1.464 22.656L2.856 22.152C3.304 23.368 3.968 24.296 4.848 24.936C5.744 25.576 6.808 25.896 8.04 25.896C8.856 25.896 9.568 25.76 10.176 25.488C10.8 25.216 11.288 24.832 11.64 24.336C11.992 23.84 12.168 23.256 12.168 22.584C12.168 21.656 11.904 20.936 11.376 20.424C10.864 19.912 10.192 19.544 9.36 19.32L6.096 18.36C4.768 17.976 3.784 17.36 3.144 16.512C2.52 15.648 2.208 14.672 2.208 13.584C2.208 12.64 2.432 11.816 2.88 11.112C3.344 10.392 3.968 9.832 4.752 9.432C5.536 9.032 6.424 8.832 7.416 8.832C8.456 8.832 9.384 9.032 10.2 9.432C11.032 9.816 11.728 10.328 12.288 10.968C12.864 11.592 13.272 12.288 13.512 13.056L12.144 13.56C11.744 12.456 11.128 11.624 10.296 11.064C9.464 10.488 8.512 10.2 7.44 10.2C6.736 10.2 6.104 10.336 5.544 10.608C4.984 10.88 4.544 11.264 4.224 11.76C3.904 12.256 3.744 12.84 3.744 13.512C3.744 14.328 3.976 15.024 4.44 15.6C4.904 16.176 5.68 16.632 6.768 16.968L9.696 17.832C10.976 18.216 11.96 18.808 12.648 19.608C13.352 20.392 13.704 21.36 13.704 22.512C13.704 23.456 13.464 24.288 12.984 25.008C12.504 25.712 11.832 26.272 10.968 26.688C10.12 27.088 9.152 27.288 8.064 27.288ZM23.2459 27.288C22.0459 27.288 20.9659 27 20.0059 26.424C19.0459 25.832 18.2859 25.032 17.7259 24.024C17.1659 23 16.8859 21.856 16.8859 20.592C16.8859 19.328 17.1579 18.2 17.7019 17.208C18.2459 16.2 18.9819 15.408 19.9099 14.832C20.8379 14.256 21.8779 13.968 23.0299 13.968C23.9099 13.968 24.7019 14.128 25.4059 14.448C26.1259 14.768 26.7419 15.216 27.2539 15.792C27.7819 16.352 28.1819 17 28.4539 17.736C28.7419 18.456 28.8859 19.216 28.8859 20.016C28.8859 20.176 28.8779 20.344 28.8619 20.52C28.8459 20.696 28.8219 20.88 28.7899 21.072H17.7259V19.752H27.9739L27.3259 20.256C27.4219 19.328 27.2859 18.496 26.9179 17.76C26.5499 17.008 26.0219 16.416 25.3339 15.984C24.6619 15.536 23.8939 15.312 23.0299 15.312C22.1659 15.312 21.3739 15.544 20.6539 16.008C19.9339 16.456 19.3659 17.08 18.9499 17.88C18.5339 18.664 18.3419 19.576 18.3739 20.616C18.3419 21.656 18.5419 22.576 18.9739 23.376C19.4059 24.176 19.9979 24.808 20.7499 25.272C21.5019 25.72 22.3339 25.944 23.2459 25.944C24.1739 25.944 24.9819 25.728 25.6699 25.296C26.3579 24.848 26.9179 24.256 27.3499 23.52L28.5739 24.168C28.2859 24.76 27.8779 25.296 27.3499 25.776C26.8219 26.24 26.2059 26.608 25.5019 26.88C24.8139 27.152 24.0619 27.288 23.2459 27.288ZM32.3201 27V8.832H33.7601V27H32.3201ZM43.5428 27.288C42.3428 27.288 41.2628 27 40.3028 26.424C39.3428 25.832 38.5828 25.032 38.0228 24.024C37.4628 23 37.1828 21.856 37.1828 20.592C37.1828 19.328 37.4548 18.2 37.9988 17.208C38.5428 16.2 39.2788 15.408 40.2068 14.832C41.1348 14.256 42.1748 13.968 43.3268 13.968C44.2068 13.968 44.9988 14.128 45.7028 14.448C46.4228 14.768 47.0388 15.216 47.5508 15.792C48.0788 16.352 48.4788 17 48.7508 17.736C49.0388 18.456 49.1828 19.216 49.1828 20.016C49.1828 20.176 49.1748 20.344 49.1588 20.52C49.1428 20.696 49.1188 20.88 49.0868 21.072H38.0228V19.752H48.2708L47.6228 20.256C47.7188 19.328 47.5828 18.496 47.2148 17.76C46.8468 17.008 46.3188 16.416 45.6308 15.984C44.9588 15.536 44.1908 15.312 43.3268 15.312C42.4628 15.312 41.6708 15.544 40.9508 16.008C40.2308 16.456 39.6628 17.08 39.2467 17.88C38.8308 18.664 38.6388 19.576 38.6708 20.616C38.6388 21.656 38.8388 22.576 39.2708 23.376C39.7028 24.176 40.2948 24.808 41.0468 25.272C41.7988 25.72 42.6308 25.944 43.5428 25.944C44.4708 25.944 45.2788 25.728 45.9668 25.296C46.6548 24.848 47.2148 24.256 47.6468 23.52L48.8708 24.168C48.5828 24.76 48.1748 25.296 47.6468 25.776C47.1188 26.24 46.5028 26.608 45.7988 26.88C45.1108 27.152 44.3588 27.288 43.5428 27.288ZM58.425 27.288C57.209 27.288 56.121 27 55.161 26.424C54.217 25.832 53.465 25.032 52.905 24.024C52.361 23.016 52.089 21.88 52.089 20.616C52.089 19.336 52.361 18.2 52.905 17.208C53.465 16.2 54.217 15.408 55.161 14.832C56.121 14.256 57.209 13.968 58.425 13.968C59.225 13.968 59.961 14.104 60.633 14.376C61.321 14.648 61.929 15.016 62.457 15.48C62.985 15.944 63.385 16.48 63.657 17.088L62.385 17.76C62.001 17.024 61.465 16.44 60.777 16.008C60.089 15.576 59.305 15.36 58.425 15.36C57.513 15.36 56.689 15.584 55.953 16.032C55.233 16.48 54.657 17.104 54.225 17.904C53.793 18.688 53.577 19.592 53.577 20.616C53.577 21.64 53.793 22.552 54.225 23.352C54.657 24.136 55.233 24.752 55.953 25.2C56.689 25.648 57.513 25.872 58.425 25.872C59.305 25.872 60.089 25.656 60.777 25.224C61.465 24.792 62.001 24.2 62.385 23.448L63.657 24.144C63.385 24.736 62.985 25.272 62.457 25.752C61.929 26.216 61.321 26.592 60.633 26.88C59.961 27.152 59.225 27.288 58.425 27.288ZM71.7334 27.144C70.6774 27.144 69.8614 26.848 69.2854 26.256C68.7094 25.648 68.4214 24.768 68.4214 23.616V15.624H66.0214V14.256H66.9334C67.4134 14.256 67.7814 14.112 68.0374 13.824C68.2934 13.536 68.4214 13.144 68.4214 12.648V11.28H69.8614V14.256H72.6454V15.624H69.8614V23.616C69.8614 23.968 69.9094 24.312 70.0054 24.648C70.1174 24.984 70.3254 25.256 70.6294 25.464C70.9334 25.672 71.3734 25.776 71.9494 25.776C72.0774 25.776 72.2294 25.768 72.4054 25.752C72.5974 25.736 72.7494 25.72 72.8614 25.704V27C72.6854 27.048 72.4854 27.08 72.2614 27.096C72.0374 27.128 71.8614 27.144 71.7334 27.144ZM76.3123 27V14.256H77.7523V27H76.3123ZM76.3123 11.76V9.12H77.7523V11.76H76.3123ZM87.6309 27.288C86.4149 27.288 85.3189 27 84.3429 26.424C83.3669 25.848 82.5909 25.056 82.0149 24.048C81.4549 23.024 81.1749 21.88 81.1749 20.616C81.1749 19.352 81.4549 18.216 82.0149 17.208C82.5909 16.2 83.3589 15.408 84.3189 14.832C85.2949 14.256 86.3989 13.968 87.6309 13.968C88.8469 13.968 89.9429 14.256 90.9189 14.832C91.8949 15.408 92.6629 16.2 93.2229 17.208C93.7829 18.2 94.0629 19.336 94.0629 20.616C94.0629 21.896 93.7749 23.04 93.1989 24.048C92.6229 25.056 91.8469 25.848 90.8709 26.424C89.9109 27 88.8309 27.288 87.6309 27.288ZM87.6309 25.872C88.5429 25.872 89.3669 25.648 90.1029 25.2C90.8549 24.736 91.4469 24.104 91.8789 23.304C92.3109 22.504 92.5269 21.608 92.5269 20.616C92.5269 19.624 92.3109 18.736 91.8789 17.952C91.4469 17.168 90.8629 16.544 90.1269 16.08C89.3909 15.616 88.5589 15.384 87.6309 15.384C86.7029 15.384 85.8629 15.616 85.1109 16.08C84.3749 16.528 83.7909 17.152 83.3589 17.952C82.9269 18.736 82.7109 19.624 82.7109 20.616C82.7109 21.608 82.9269 22.504 83.3589 23.304C83.8069 24.104 84.3989 24.736 85.1349 25.2C85.8709 25.648 86.7029 25.872 87.6309 25.872ZM97.5233 27V14.256H98.9633V16.824L98.6033 16.728C98.8913 15.88 99.4033 15.208 100.139 14.712C100.891 14.216 101.763 13.968 102.755 13.968C103.635 13.968 104.435 14.168 105.155 14.568C105.875 14.968 106.451 15.528 106.883 16.248C107.315 16.952 107.531 17.76 107.531 18.672V27H106.091V19.08C106.091 18.312 105.939 17.656 105.635 17.112C105.331 16.552 104.907 16.128 104.363 15.84C103.835 15.536 103.227 15.384 102.539 15.384C101.819 15.384 101.187 15.552 100.643 15.888C100.099 16.224 99.6833 16.688 99.3953 17.28C99.1073 17.872 98.9633 18.552 98.9633 19.32V27H97.5233ZM123.523 27.288C122.291 27.288 121.155 27.064 120.115 26.616C119.075 26.152 118.163 25.504 117.379 24.672C116.611 23.84 116.011 22.864 115.579 21.744C115.163 20.624 114.955 19.392 114.955 18.048C114.955 16.72 115.163 15.496 115.579 14.376C116.011 13.24 116.611 12.264 117.379 11.448C118.163 10.616 119.075 9.976 120.115 9.528C121.155 9.064 122.291 8.832 123.523 8.832C124.723 8.832 125.803 9.048 126.763 9.48C127.723 9.912 128.531 10.464 129.187 11.136C129.843 11.808 130.315 12.504 130.603 13.224L129.139 13.872C128.659 12.8 127.931 11.936 126.955 11.28C125.995 10.624 124.851 10.296 123.523 10.296C122.163 10.296 120.947 10.624 119.875 11.28C118.819 11.936 117.995 12.848 117.403 14.016C116.811 15.168 116.515 16.512 116.515 18.048C116.515 19.584 116.811 20.936 117.403 22.104C117.995 23.272 118.819 24.184 119.875 24.84C120.947 25.48 122.163 25.8 123.523 25.8C124.851 25.8 125.995 25.48 126.955 24.84C127.931 24.184 128.659 23.32 129.139 22.248L130.603 22.896C130.315 23.6 129.843 24.288 129.187 24.96C128.531 25.632 127.723 26.192 126.763 26.64C125.803 27.072 124.723 27.288 123.523 27.288ZM137.476 27.288C136.676 27.288 135.964 27.136 135.34 26.832C134.716 26.528 134.22 26.104 133.852 25.56C133.484 25.016 133.3 24.392 133.3 23.688C133.3 23.064 133.436 22.48 133.708 21.936C133.98 21.392 134.42 20.928 135.028 20.544C135.636 20.144 136.428 19.864 137.404 19.704L142.564 18.84V20.184L137.788 20.976C136.7 21.152 135.932 21.48 135.484 21.96C135.036 22.44 134.812 23 134.812 23.64C134.812 24.328 135.068 24.888 135.58 25.32C136.108 25.752 136.772 25.968 137.572 25.968C138.5 25.968 139.308 25.76 139.996 25.344C140.684 24.912 141.22 24.352 141.604 23.664C141.988 22.96 142.18 22.192 142.18 21.36V18.192C142.18 17.344 141.876 16.656 141.268 16.128C140.66 15.6 139.868 15.336 138.892 15.336C138.092 15.336 137.372 15.536 136.732 15.936C136.092 16.336 135.604 16.856 135.268 17.496L133.972 16.8C134.212 16.288 134.58 15.816 135.076 15.384C135.572 14.952 136.148 14.608 136.804 14.352C137.46 14.096 138.156 13.968 138.892 13.968C139.82 13.968 140.636 14.152 141.34 14.52C142.06 14.872 142.62 15.368 143.02 16.008C143.42 16.632 143.62 17.36 143.62 18.192V27H142.18V24.336L142.348 24.456C142.14 24.968 141.796 25.44 141.316 25.872C140.836 26.288 140.268 26.632 139.612 26.904C138.972 27.16 138.26 27.288 137.476 27.288ZM147.586 27V14.256H149.026V16.632L148.762 16.416C149.034 15.696 149.498 15.128 150.154 14.712C150.826 14.296 151.618 14.088 152.53 14.088H153.346V15.528H152.362C151.322 15.528 150.506 15.864 149.914 16.536C149.322 17.192 149.026 18.08 149.026 19.2V27H147.586ZM161.455 27.288C160.271 27.288 159.199 27 158.239 26.424C157.295 25.832 156.551 25.032 156.007 24.024C155.463 23.016 155.191 21.88 155.191 20.616C155.191 19.352 155.463 18.216 156.007 17.208C156.551 16.2 157.295 15.408 158.239 14.832C159.199 14.256 160.271 13.968 161.455 13.968C162.623 13.968 163.663 14.248 164.575 14.808C165.487 15.352 166.175 16.088 166.639 17.016L166.399 17.472V8.832H167.839V27H166.399V23.76L166.639 24.096C166.191 25.088 165.503 25.872 164.575 26.448C163.663 27.008 162.623 27.288 161.455 27.288ZM161.503 25.848C162.431 25.848 163.255 25.624 163.975 25.176C164.711 24.712 165.295 24.088 165.727 23.304C166.159 22.504 166.375 21.608 166.375 20.616C166.375 19.624 166.159 18.736 165.727 17.952C165.295 17.168 164.711 16.552 163.975 16.104C163.255 15.64 162.431 15.408 161.503 15.408C160.591 15.408 159.775 15.64 159.055 16.104C158.335 16.552 157.767 17.168 157.351 17.952C156.935 18.736 156.727 19.624 156.727 20.616C156.727 21.608 156.935 22.504 157.351 23.304C157.767 24.088 158.335 24.712 159.055 25.176C159.775 25.624 160.591 25.848 161.503 25.848Z" fill="#121214"/>
<rect x="0.5" y="58.5" width="699" height="591" rx="4.5" stroke="#9747FF" stroke-dasharray="10 5"/>
<rect x="222.5" y="122.5" width="255" height="127" rx="7.5" fill="white"/>
<rect x="222.5" y="122.5" width="255" height="127" rx="7.5" stroke="#D6D3D1"/>
<path opacity="0.4" d="M360 178C360 183.523 355.523 188 350 188C344.477 188 340 183.523 340 178C340 172.477 344.477 168 350 168C355.523 168 360 172.477 360 178Z" fill="#FEDF6F"/>
<path d="M360 178C360 183.523 355.523 188 350 188C344.477 188 340 183.523 340 178C340 172.477 344.477 168 350 168C355.523 168 360 172.477 360 178Z" stroke="#FEDF6F" stroke-width="3"/>
<path d="M350 158C349.245 158.667 348.189 160.4 350 162M350 194C350.755 194.667 351.811 196.4 350 198M365 163.005C363.937 162.94 361.851 163.446 362.008 165.997M336.992 189C337.057 190.063 336.551 192.149 334 191.992M336.005 163C335.94 164.064 336.446 166.153 339 165.995M362 189.005C363.063 188.943 365.149 189.422 364.992 191.834M370 178C369.333 177.245 367.6 176.189 366 178M334 177C333.333 177.755 331.6 178.811 330 177" stroke="#FEDF6F" stroke-width="3" stroke-linecap="round"/>
<path d="M329.563 228V216.8H331.163V226.608H337.227V228H329.563ZM344.103 228V226.208L344.023 225.872V222.816C344.023 222.165 343.831 221.664 343.447 221.312C343.073 220.949 342.508 220.768 341.751 220.768C341.249 220.768 340.759 220.853 340.279 221.024C339.799 221.184 339.393 221.403 339.063 221.68L338.423 220.528C338.86 220.176 339.383 219.909 339.991 219.728C340.609 219.536 341.255 219.44 341.927 219.44C343.089 219.44 343.985 219.723 344.615 220.288C345.244 220.853 345.559 221.717 345.559 222.88V228H344.103ZM341.319 228.096C340.689 228.096 340.135 227.989 339.655 227.776C339.185 227.563 338.823 227.269 338.567 226.896C338.311 226.512 338.183 226.08 338.183 225.6C338.183 225.141 338.289 224.725 338.503 224.352C338.727 223.979 339.084 223.68 339.575 223.456C340.076 223.232 340.748 223.12 341.591 223.12H344.279V224.224H341.655C340.887 224.224 340.369 224.352 340.103 224.608C339.836 224.864 339.703 225.173 339.703 225.536C339.703 225.952 339.868 226.288 340.199 226.544C340.529 226.789 340.988 226.912 341.575 226.912C342.151 226.912 342.652 226.784 343.079 226.528C343.516 226.272 343.831 225.899 344.023 225.408L344.327 226.464C344.124 226.965 343.767 227.365 343.255 227.664C342.743 227.952 342.097 228.096 341.319 228.096ZM352.897 228.096C352.172 228.096 351.516 227.936 350.929 227.616C350.353 227.285 349.895 226.8 349.553 226.16C349.223 225.52 349.057 224.72 349.057 223.76C349.057 222.8 349.228 222 349.569 221.36C349.921 220.72 350.385 220.24 350.961 219.92C351.548 219.6 352.193 219.44 352.897 219.44C353.729 219.44 354.465 219.621 355.105 219.984C355.745 220.347 356.252 220.853 356.625 221.504C356.999 222.144 357.185 222.896 357.185 223.76C357.185 224.624 356.999 225.381 356.625 226.032C356.252 226.683 355.745 227.189 355.105 227.552C354.465 227.915 353.729 228.096 352.897 228.096ZM348.401 228V216.128H349.937V221.776L349.777 223.744L349.873 225.712V228H348.401ZM352.769 226.752C353.313 226.752 353.799 226.629 354.225 226.384C354.663 226.139 355.004 225.792 355.249 225.344C355.505 224.885 355.633 224.357 355.633 223.76C355.633 223.152 355.505 222.629 355.249 222.192C355.004 221.744 354.663 221.397 354.225 221.152C353.799 220.907 353.313 220.784 352.769 220.784C352.236 220.784 351.751 220.907 351.313 221.152C350.887 221.397 350.545 221.744 350.289 222.192C350.044 222.629 349.921 223.152 349.921 223.76C349.921 224.357 350.044 224.885 350.289 225.344C350.545 225.792 350.887 226.139 351.313 226.384C351.751 226.629 352.236 226.752 352.769 226.752ZM363.084 228.096C362.177 228.096 361.377 227.909 360.684 227.536C360.001 227.163 359.468 226.651 359.084 226C358.71 225.349 358.524 224.603 358.524 223.76C358.524 222.917 358.705 222.171 359.068 221.52C359.441 220.869 359.948 220.363 360.588 220C361.238 219.627 361.969 219.44 362.78 219.44C363.601 219.44 364.326 219.621 364.956 219.984C365.585 220.347 366.076 220.859 366.428 221.52C366.79 222.171 366.972 222.933 366.972 223.808C366.972 223.872 366.966 223.947 366.956 224.032C366.956 224.117 366.95 224.197 366.94 224.272H359.724V223.168H366.14L365.516 223.552C365.526 223.008 365.414 222.523 365.18 222.096C364.945 221.669 364.62 221.339 364.204 221.104C363.798 220.859 363.324 220.736 362.78 220.736C362.246 220.736 361.772 220.859 361.356 221.104C360.94 221.339 360.614 221.675 360.38 222.112C360.145 222.539 360.028 223.029 360.028 223.584V223.84C360.028 224.405 360.156 224.912 360.412 225.36C360.678 225.797 361.046 226.139 361.516 226.384C361.985 226.629 362.524 226.752 363.132 226.752C363.633 226.752 364.086 226.667 364.492 226.496C364.908 226.325 365.27 226.069 365.58 225.728L366.428 226.72C366.044 227.168 365.564 227.509 364.988 227.744C364.422 227.979 363.788 228.096 363.084 228.096ZM369.104 228V216.128H370.64V228H369.104Z" fill="black" fill-opacity="0.8"/>
<path d="M242 152C247.523 152 252 147.523 252 142C252 136.477 247.523 132 242 132C236.477 132 232 136.477 232 142C232 147.523 236.477 152 242 152Z" stroke="#D6D3D1" stroke-width="1.5" stroke-linejoin="round"/>
<rect x="222.5" y="290.5" width="255" height="127" rx="7.5" fill="white"/>
<rect x="222.5" y="290.5" width="255" height="127" rx="7.5" stroke="#F3541C"/>
<path opacity="0.4" d="M360 346C360 351.523 355.523 356 350 356C344.477 356 340 351.523 340 346C340 340.477 344.477 336 350 336C355.523 336 360 340.477 360 346Z" fill="#FEDF6F"/>
<path d="M360 346C360 351.523 355.523 356 350 356C344.477 356 340 351.523 340 346C340 340.477 344.477 336 350 336C355.523 336 360 340.477 360 346Z" stroke="#FEDF6F" stroke-width="3"/>
<path d="M350 326C349.245 326.667 348.189 328.4 350 330M350 362C350.755 362.667 351.811 364.4 350 366M365 331.005C363.937 330.94 361.851 331.446 362.008 333.997M336.992 357C337.057 358.063 336.551 360.149 334 359.992M336.005 331C335.94 332.064 336.446 334.153 339 333.995M362 357.005C363.063 356.943 365.149 357.422 364.992 359.834M370 346C369.333 345.245 367.6 344.189 366 346M334 345C333.333 345.755 331.6 346.811 330 345" stroke="#FEDF6F" stroke-width="3" stroke-linecap="round"/>
<path d="M329.563 396V384.8H331.163V394.608H337.227V396H329.563ZM344.103 396V394.208L344.023 393.872V390.816C344.023 390.165 343.831 389.664 343.447 389.312C343.073 388.949 342.508 388.768 341.751 388.768C341.249 388.768 340.759 388.853 340.279 389.024C339.799 389.184 339.393 389.403 339.063 389.68L338.423 388.528C338.86 388.176 339.383 387.909 339.991 387.728C340.609 387.536 341.255 387.44 341.927 387.44C343.089 387.44 343.985 387.723 344.615 388.288C345.244 388.853 345.559 389.717 345.559 390.88V396H344.103ZM341.319 396.096C340.689 396.096 340.135 395.989 339.655 395.776C339.185 395.563 338.823 395.269 338.567 394.896C338.311 394.512 338.183 394.08 338.183 393.6C338.183 393.141 338.289 392.725 338.503 392.352C338.727 391.979 339.084 391.68 339.575 391.456C340.076 391.232 340.748 391.12 341.591 391.12H344.279V392.224H341.655C340.887 392.224 340.369 392.352 340.103 392.608C339.836 392.864 339.703 393.173 339.703 393.536C339.703 393.952 339.868 394.288 340.199 394.544C340.529 394.789 340.988 394.912 341.575 394.912C342.151 394.912 342.652 394.784 343.079 394.528C343.516 394.272 343.831 393.899 344.023 393.408L344.327 394.464C344.124 394.965 343.767 395.365 343.255 395.664C342.743 395.952 342.097 396.096 341.319 396.096ZM352.897 396.096C352.172 396.096 351.516 395.936 350.929 395.616C350.353 395.285 349.895 394.8 349.553 394.16C349.223 393.52 349.057 392.72 349.057 391.76C349.057 390.8 349.228 390 349.569 389.36C349.921 388.72 350.385 388.24 350.961 387.92C351.548 387.6 352.193 387.44 352.897 387.44C353.729 387.44 354.465 387.621 355.105 387.984C355.745 388.347 356.252 388.853 356.625 389.504C356.999 390.144 357.185 390.896 357.185 391.76C357.185 392.624 356.999 393.381 356.625 394.032C356.252 394.683 355.745 395.189 355.105 395.552C354.465 395.915 353.729 396.096 352.897 396.096ZM348.401 396V384.128H349.937V389.776L349.777 391.744L349.873 393.712V396H348.401ZM352.769 394.752C353.313 394.752 353.799 394.629 354.225 394.384C354.663 394.139 355.004 393.792 355.249 393.344C355.505 392.885 355.633 392.357 355.633 391.76C355.633 391.152 355.505 390.629 355.249 390.192C355.004 389.744 354.663 389.397 354.225 389.152C353.799 388.907 353.313 388.784 352.769 388.784C352.236 388.784 351.751 388.907 351.313 389.152C350.887 389.397 350.545 389.744 350.289 390.192C350.044 390.629 349.921 391.152 349.921 391.76C349.921 392.357 350.044 392.885 350.289 393.344C350.545 393.792 350.887 394.139 351.313 394.384C351.751 394.629 352.236 394.752 352.769 394.752ZM363.084 396.096C362.177 396.096 361.377 395.909 360.684 395.536C360.001 395.163 359.468 394.651 359.084 394C358.71 393.349 358.524 392.603 358.524 391.76C358.524 390.917 358.705 390.171 359.068 389.52C359.441 388.869 359.948 388.363 360.588 388C361.238 387.627 361.969 387.44 362.78 387.44C363.601 387.44 364.326 387.621 364.956 387.984C365.585 388.347 366.076 388.859 366.428 389.52C366.79 390.171 366.972 390.933 366.972 391.808C366.972 391.872 366.966 391.947 366.956 392.032C366.956 392.117 366.95 392.197 366.94 392.272H359.724V391.168H366.14L365.516 391.552C365.526 391.008 365.414 390.523 365.18 390.096C364.945 389.669 364.62 389.339 364.204 389.104C363.798 388.859 363.324 388.736 362.78 388.736C362.246 388.736 361.772 388.859 361.356 389.104C360.94 389.339 360.614 389.675 360.38 390.112C360.145 390.539 360.028 391.029 360.028 391.584V391.84C360.028 392.405 360.156 392.912 360.412 393.36C360.678 393.797 361.046 394.139 361.516 394.384C361.985 394.629 362.524 394.752 363.132 394.752C363.633 394.752 364.086 394.667 364.492 394.496C364.908 394.325 365.27 394.069 365.58 393.728L366.428 394.72C366.044 395.168 365.564 395.509 364.988 395.744C364.422 395.979 363.788 396.096 363.084 396.096ZM369.104 396V384.128H370.64V396H369.104Z" fill="black" fill-opacity="0.8"/>
<path d="M242 320C247.523 320 252 315.523 252 310C252 304.477 247.523 300 242 300C236.477 300 232 304.477 232 310C232 315.523 236.477 320 242 320Z" stroke="#F3541C" stroke-width="1.5" stroke-linejoin="round"/>
<rect x="222" y="458" width="256" height="128" rx="8" fill="white"/>
<rect x="222" y="458" width="256" height="128" rx="8" stroke="#F3541C" stroke-width="2"/>
<path opacity="0.4" d="M360 514C360 519.523 355.523 524 350 524C344.477 524 340 519.523 340 514C340 508.477 344.477 504 350 504C355.523 504 360 508.477 360 514Z" fill="#FEDF6F"/>
<path d="M360 514C360 519.523 355.523 524 350 524C344.477 524 340 519.523 340 514C340 508.477 344.477 504 350 504C355.523 504 360 508.477 360 514Z" stroke="#FEDF6F" stroke-width="3"/>
<path d="M350 494C349.245 494.667 348.189 496.4 350 498M350 530C350.755 530.667 351.811 532.4 350 534M365 499.005C363.937 498.94 361.851 499.446 362.008 501.997M336.992 525C337.057 526.063 336.551 528.149 334 527.992M336.005 499C335.94 500.064 336.446 502.153 339 501.995M362 525.005C363.063 524.943 365.149 525.422 364.992 527.834M370 514C369.333 513.245 367.6 512.189 366 514M334 513C333.333 513.755 331.6 514.811 330 513" stroke="#FEDF6F" stroke-width="3" stroke-linecap="round"/>
<path d="M329.563 564V552.8H331.163V562.608H337.227V564H329.563ZM344.103 564V562.208L344.023 561.872V558.816C344.023 558.165 343.831 557.664 343.447 557.312C343.073 556.949 342.508 556.768 341.751 556.768C341.249 556.768 340.759 556.853 340.279 557.024C339.799 557.184 339.393 557.403 339.063 557.68L338.423 556.528C338.86 556.176 339.383 555.909 339.991 555.728C340.609 555.536 341.255 555.44 341.927 555.44C343.089 555.44 343.985 555.723 344.615 556.288C345.244 556.853 345.559 557.717 345.559 558.88V564H344.103ZM341.319 564.096C340.689 564.096 340.135 563.989 339.655 563.776C339.185 563.563 338.823 563.269 338.567 562.896C338.311 562.512 338.183 562.08 338.183 561.6C338.183 561.141 338.289 560.725 338.503 560.352C338.727 559.979 339.084 559.68 339.575 559.456C340.076 559.232 340.748 559.12 341.591 559.12H344.279V560.224H341.655C340.887 560.224 340.369 560.352 340.103 560.608C339.836 560.864 339.703 561.173 339.703 561.536C339.703 561.952 339.868 562.288 340.199 562.544C340.529 562.789 340.988 562.912 341.575 562.912C342.151 562.912 342.652 562.784 343.079 562.528C343.516 562.272 343.831 561.899 344.023 561.408L344.327 562.464C344.124 562.965 343.767 563.365 343.255 563.664C342.743 563.952 342.097 564.096 341.319 564.096ZM352.897 564.096C352.172 564.096 351.516 563.936 350.929 563.616C350.353 563.285 349.895 562.8 349.553 562.16C349.223 561.52 349.057 560.72 349.057 559.76C349.057 558.8 349.228 558 349.569 557.36C349.921 556.72 350.385 556.24 350.961 555.92C351.548 555.6 352.193 555.44 352.897 555.44C353.729 555.44 354.465 555.621 355.105 555.984C355.745 556.347 356.252 556.853 356.625 557.504C356.999 558.144 357.185 558.896 357.185 559.76C357.185 560.624 356.999 561.381 356.625 562.032C356.252 562.683 355.745 563.189 355.105 563.552C354.465 563.915 353.729 564.096 352.897 564.096ZM348.401 564V552.128H349.937V557.776L349.777 559.744L349.873 561.712V564H348.401ZM352.769 562.752C353.313 562.752 353.799 562.629 354.225 562.384C354.663 562.139 355.004 561.792 355.249 561.344C355.505 560.885 355.633 560.357 355.633 559.76C355.633 559.152 355.505 558.629 355.249 558.192C355.004 557.744 354.663 557.397 354.225 557.152C353.799 556.907 353.313 556.784 352.769 556.784C352.236 556.784 351.751 556.907 351.313 557.152C350.887 557.397 350.545 557.744 350.289 558.192C350.044 558.629 349.921 559.152 349.921 559.76C349.921 560.357 350.044 560.885 350.289 561.344C350.545 561.792 350.887 562.139 351.313 562.384C351.751 562.629 352.236 562.752 352.769 562.752ZM363.084 564.096C362.177 564.096 361.377 563.909 360.684 563.536C360.001 563.163 359.468 562.651 359.084 562C358.71 561.349 358.524 560.603 358.524 559.76C358.524 558.917 358.705 558.171 359.068 557.52C359.441 556.869 359.948 556.363 360.588 556C361.238 555.627 361.969 555.44 362.78 555.44C363.601 555.44 364.326 555.621 364.956 555.984C365.585 556.347 366.076 556.859 366.428 557.52C366.79 558.171 366.972 558.933 366.972 559.808C366.972 559.872 366.966 559.947 366.956 560.032C366.956 560.117 366.95 560.197 366.94 560.272H359.724V559.168H366.14L365.516 559.552C365.526 559.008 365.414 558.523 365.18 558.096C364.945 557.669 364.62 557.339 364.204 557.104C363.798 556.859 363.324 556.736 362.78 556.736C362.246 556.736 361.772 556.859 361.356 557.104C360.94 557.339 360.614 557.675 360.38 558.112C360.145 558.539 360.028 559.029 360.028 559.584V559.84C360.028 560.405 360.156 560.912 360.412 561.36C360.678 561.797 361.046 562.139 361.516 562.384C361.985 562.629 362.524 562.752 363.132 562.752C363.633 562.752 364.086 562.667 364.492 562.496C364.908 562.325 365.27 562.069 365.58 561.728L366.428 562.72C366.044 563.168 365.564 563.509 364.988 563.744C364.422 563.979 363.788 564.096 363.084 564.096ZM369.104 564V552.128H370.64V564H369.104Z" fill="black" fill-opacity="0.8"/>
<path fill-rule="evenodd" clip-rule="evenodd" d="M242 488.75C236.063 488.75 231.25 483.937 231.25 478C231.25 472.063 236.063 467.25 242 467.25C247.937 467.25 252.75 472.063 252.75 478C252.75 483.937 247.937 488.75 242 488.75ZM246.48 475.378C246.964 475.113 247.143 474.505 246.878 474.02C246.613 473.536 246.005 473.358 245.52 473.623C243.692 474.623 242.18 476.553 241.163 478.11C240.787 478.685 240.466 479.23 240.209 479.691C239.97 479.459 239.733 479.257 239.52 479.089C239.243 478.87 238.993 478.696 238.811 478.577L238.496 478.382C238.016 478.108 237.405 478.275 237.132 478.755C236.858 479.234 237.025 479.845 237.504 480.119L237.715 480.25C237.858 480.344 238.058 480.482 238.28 480.658C238.738 481.02 239.231 481.494 239.542 482.014C239.733 482.332 240.084 482.519 240.455 482.499C240.826 482.478 241.155 482.254 241.31 481.916L241.408 481.71C241.476 481.572 241.577 481.37 241.709 481.12C241.973 480.621 242.358 479.937 242.837 479.203C243.821 477.698 245.109 476.127 246.48 475.378Z" fill="#F3541C"/>
<path d="M733.408 193V181.08H734.528L741.52 191.112H741.088V181.08H742.368V193H741.248L734.256 182.904H734.688V193H733.408ZM750.805 193.192C749.973 193.192 749.195 193.043 748.469 192.744C747.755 192.435 747.125 192.008 746.581 191.464C746.037 190.909 745.611 190.259 745.301 189.512C744.992 188.755 744.837 187.928 744.837 187.032C744.837 186.136 744.992 185.315 745.301 184.568C745.611 183.811 746.037 183.16 746.581 182.616C747.125 182.061 747.755 181.635 748.469 181.336C749.195 181.037 749.973 180.888 750.805 180.888C751.637 180.888 752.411 181.043 753.125 181.352C753.851 181.651 754.485 182.077 755.029 182.632C755.573 183.176 756 183.821 756.309 184.568C756.619 185.315 756.773 186.136 756.773 187.032C756.773 187.928 756.619 188.755 756.309 189.512C756 190.259 755.573 190.909 755.029 191.464C754.485 192.008 753.851 192.435 753.125 192.744C752.411 193.043 751.637 193.192 750.805 193.192ZM750.805 191.992C751.499 191.992 752.128 191.864 752.693 191.608C753.269 191.352 753.765 190.995 754.181 190.536C754.597 190.077 754.917 189.549 755.141 188.952C755.376 188.355 755.493 187.715 755.493 187.032C755.493 186.36 755.376 185.725 755.141 185.128C754.917 184.531 754.597 184.003 754.181 183.544C753.765 183.085 753.269 182.728 752.693 182.472C752.128 182.216 751.499 182.088 750.805 182.088C750.112 182.088 749.477 182.216 748.901 182.472C748.336 182.728 747.845 183.085 747.429 183.544C747.013 184.003 746.688 184.531 746.453 185.128C746.229 185.725 746.117 186.36 746.117 187.032C746.117 187.715 746.229 188.355 746.453 188.952C746.688 189.549 747.013 190.077 747.429 190.536C747.845 190.995 748.341 191.352 748.917 191.608C749.493 191.864 750.123 191.992 750.805 191.992ZM760.816 193V182.28H757.52V181.08H765.36V182.28H762.096V193H760.816ZM773.674 193.192C772.917 193.192 772.229 193.048 771.61 192.76C770.991 192.472 770.469 192.088 770.042 191.608C769.615 191.117 769.311 190.579 769.13 189.992L770.282 189.56C770.559 190.371 770.991 190.989 771.578 191.416C772.165 191.832 772.863 192.04 773.674 192.04C774.186 192.04 774.634 191.96 775.018 191.8C775.413 191.629 775.717 191.395 775.93 191.096C776.143 190.797 776.25 190.451 776.25 190.056C776.25 189.469 776.09 189.016 775.77 188.696C775.45 188.376 774.991 188.131 774.394 187.96L772.25 187.32C771.407 187.075 770.757 186.664 770.298 186.088C769.85 185.512 769.626 184.856 769.626 184.12C769.626 183.491 769.781 182.936 770.09 182.456C770.399 181.965 770.821 181.581 771.354 181.304C771.898 181.027 772.511 180.888 773.194 180.888C773.909 180.888 774.549 181.021 775.114 181.288C775.69 181.544 776.175 181.885 776.57 182.312C776.965 182.739 777.247 183.213 777.418 183.736L776.298 184.184C776.042 183.48 775.642 182.947 775.098 182.584C774.565 182.221 773.935 182.04 773.21 182.04C772.751 182.04 772.346 182.12 771.994 182.28C771.653 182.44 771.386 182.669 771.194 182.968C771.002 183.267 770.906 183.619 770.906 184.024C770.906 184.515 771.061 184.957 771.37 185.352C771.679 185.736 772.154 186.024 772.794 186.216L774.682 186.776C775.621 187.053 776.33 187.453 776.81 187.976C777.29 188.499 777.53 189.155 777.53 189.944C777.53 190.584 777.365 191.149 777.034 191.64C776.714 192.12 776.261 192.499 775.674 192.776C775.098 193.053 774.431 193.192 773.674 193.192ZM780.002 193V181.08H787.682V182.28H781.282V186.424H787.362V187.624H781.282V191.8H787.682V193H780.002ZM789.799 193V181.08H791.079V191.8H796.359V193H789.799ZM798.299 193V181.08H805.979V182.28H799.579V186.424H805.659V187.624H799.579V191.8H805.979V193H798.299ZM813.536 193.192C812.693 193.192 811.92 193.043 811.216 192.744C810.512 192.435 809.898 192.008 809.376 191.464C808.864 190.909 808.464 190.259 808.176 189.512C807.888 188.765 807.743 187.944 807.743 187.048C807.743 186.152 807.888 185.331 808.176 184.584C808.464 183.837 808.864 183.187 809.376 182.632C809.898 182.077 810.512 181.651 811.216 181.352C811.92 181.043 812.693 180.888 813.536 180.888C814.346 180.888 815.072 181.032 815.712 181.32C816.362 181.608 816.906 181.981 817.344 182.44C817.792 182.888 818.112 183.363 818.304 183.864L817.104 184.392C816.805 183.699 816.346 183.144 815.727 182.728C815.12 182.301 814.389 182.088 813.536 182.088C812.661 182.088 811.882 182.296 811.2 182.712C810.517 183.128 809.984 183.709 809.6 184.456C809.216 185.192 809.024 186.056 809.024 187.048C809.024 188.029 809.216 188.893 809.6 189.64C809.984 190.387 810.517 190.968 811.2 191.384C811.882 191.789 812.661 191.992 813.536 191.992C814.389 191.992 815.12 191.784 815.727 191.368C816.346 190.952 816.805 190.397 817.104 189.704L818.304 190.232C818.112 190.723 817.792 191.197 817.344 191.656C816.906 192.104 816.362 192.472 815.712 192.76C815.072 193.048 814.346 193.192 813.536 193.192ZM822.66 193V182.28H819.364V181.08H827.204V182.28H823.94V193H822.66ZM828.783 193V181.08H836.463V182.28H830.063V186.424H836.143V187.624H830.063V191.8H836.463V193H828.783ZM838.58 193V181.08H842.5C843.684 181.08 844.713 181.325 845.588 181.816C846.463 182.296 847.14 182.984 847.62 183.88C848.1 184.765 848.34 185.816 848.34 187.032C848.34 188.237 848.1 189.288 847.62 190.184C847.14 191.08 846.463 191.773 845.588 192.264C844.713 192.755 843.684 193 842.5 193H838.58ZM839.86 191.8H842.5C843.417 191.8 844.212 191.608 844.884 191.224C845.556 190.829 846.073 190.275 846.436 189.56C846.809 188.845 846.996 188.003 846.996 187.032C846.996 186.061 846.809 185.224 846.436 184.52C846.063 183.805 845.54 183.256 844.868 182.872C844.196 182.477 843.407 182.28 842.5 182.28H839.86V191.8ZM851.798 194.92L857.206 181.736H858.598L853.19 194.92H851.798ZM862.752 193V181.08H866.672C867.856 181.08 868.885 181.325 869.76 181.816C870.634 182.296 871.312 182.984 871.792 183.88C872.272 184.765 872.512 185.816 872.512 187.032C872.512 188.237 872.272 189.288 871.792 190.184C871.312 191.08 870.634 191.773 869.76 192.264C868.885 192.755 867.856 193 866.672 193H862.752ZM864.032 191.8H866.672C867.589 191.8 868.384 191.608 869.056 191.224C869.728 190.829 870.245 190.275 870.608 189.56C870.981 188.845 871.168 188.003 871.168 187.032C871.168 186.061 870.981 185.224 870.608 184.52C870.234 183.805 869.712 183.256 869.04 182.872C868.368 182.477 867.578 182.28 866.672 182.28H864.032V191.8ZM874.627 193V181.08H882.307V182.28H875.907V186.424H881.987V187.624H875.907V191.8H882.307V193H874.627ZM884.424 193V181.08H891.784V182.28H885.704V186.424H891.304V187.624H885.704V193H884.424ZM891.692 193L896.044 181.08H897.42L901.772 193H900.428L899.404 190.088H894.076L893.036 193H891.692ZM894.492 188.888H898.956L896.54 182.04H896.924L894.492 188.888ZM907.241 193.192C906.398 193.192 905.657 193.016 905.017 192.664C904.377 192.312 903.881 191.832 903.529 191.224C903.177 190.605 903.001 189.901 903.001 189.112V181.08H904.281V189.112C904.281 189.688 904.403 190.195 904.649 190.632C904.905 191.059 905.251 191.395 905.689 191.64C906.137 191.875 906.654 191.992 907.241 191.992C907.827 191.992 908.339 191.875 908.777 191.64C909.225 191.395 909.571 191.059 909.817 190.632C910.073 190.195 910.201 189.688 910.201 189.112V181.08H911.481V189.112C911.481 189.901 911.305 190.605 910.953 191.224C910.601 191.832 910.105 192.312 909.465 192.664C908.835 193.016 908.094 193.192 907.241 193.192ZM914.252 193V181.08H915.532V191.8H920.812V193H914.252ZM923.863 193V182.28H920.567V181.08H928.407V182.28H925.143V193H923.863Z" fill="#7C7C8A"/>
<path d="M733.408 361V349.08H734.528L741.52 359.112H741.088V349.08H742.368V361H741.248L734.256 350.904H734.688V361H733.408ZM750.805 361.192C749.973 361.192 749.195 361.043 748.469 360.744C747.755 360.435 747.125 360.008 746.581 359.464C746.037 358.909 745.611 358.259 745.301 357.512C744.992 356.755 744.837 355.928 744.837 355.032C744.837 354.136 744.992 353.315 745.301 352.568C745.611 351.811 746.037 351.16 746.581 350.616C747.125 350.061 747.755 349.635 748.469 349.336C749.195 349.037 749.973 348.888 750.805 348.888C751.637 348.888 752.411 349.043 753.125 349.352C753.851 349.651 754.485 350.077 755.029 350.632C755.573 351.176 756 351.821 756.309 352.568C756.619 353.315 756.773 354.136 756.773 355.032C756.773 355.928 756.619 356.755 756.309 357.512C756 358.259 755.573 358.909 755.029 359.464C754.485 360.008 753.851 360.435 753.125 360.744C752.411 361.043 751.637 361.192 750.805 361.192ZM750.805 359.992C751.499 359.992 752.128 359.864 752.693 359.608C753.269 359.352 753.765 358.995 754.181 358.536C754.597 358.077 754.917 357.549 755.141 356.952C755.376 356.355 755.493 355.715 755.493 355.032C755.493 354.36 755.376 353.725 755.141 353.128C754.917 352.531 754.597 352.003 754.181 351.544C753.765 351.085 753.269 350.728 752.693 350.472C752.128 350.216 751.499 350.088 750.805 350.088C750.112 350.088 749.477 350.216 748.901 350.472C748.336 350.728 747.845 351.085 747.429 351.544C747.013 352.003 746.688 352.531 746.453 353.128C746.229 353.725 746.117 354.36 746.117 355.032C746.117 355.715 746.229 356.355 746.453 356.952C746.688 357.549 747.013 358.077 747.429 358.536C747.845 358.995 748.341 359.352 748.917 359.608C749.493 359.864 750.123 359.992 750.805 359.992ZM760.816 361V350.28H757.52V349.08H765.36V350.28H762.096V361H760.816ZM773.674 361.192C772.917 361.192 772.229 361.048 771.61 360.76C770.991 360.472 770.469 360.088 770.042 359.608C769.615 359.117 769.311 358.579 769.13 357.992L770.282 357.56C770.559 358.371 770.991 358.989 771.578 359.416C772.165 359.832 772.863 360.04 773.674 360.04C774.186 360.04 774.634 359.96 775.018 359.8C775.413 359.629 775.717 359.395 775.93 359.096C776.143 358.797 776.25 358.451 776.25 358.056C776.25 357.469 776.09 357.016 775.77 356.696C775.45 356.376 774.991 356.131 774.394 355.96L772.25 355.32C771.407 355.075 770.757 354.664 770.298 354.088C769.85 353.512 769.626 352.856 769.626 352.12C769.626 351.491 769.781 350.936 770.09 350.456C770.399 349.965 770.821 349.581 771.354 349.304C771.898 349.027 772.511 348.888 773.194 348.888C773.909 348.888 774.549 349.021 775.114 349.288C775.69 349.544 776.175 349.885 776.57 350.312C776.965 350.739 777.247 351.213 777.418 351.736L776.298 352.184C776.042 351.48 775.642 350.947 775.098 350.584C774.565 350.221 773.935 350.04 773.21 350.04C772.751 350.04 772.346 350.12 771.994 350.28C771.653 350.44 771.386 350.669 771.194 350.968C771.002 351.267 770.906 351.619 770.906 352.024C770.906 352.515 771.061 352.957 771.37 353.352C771.679 353.736 772.154 354.024 772.794 354.216L774.682 354.776C775.621 355.053 776.33 355.453 776.81 355.976C777.29 356.499 777.53 357.155 777.53 357.944C777.53 358.584 777.365 359.149 777.034 359.64C776.714 360.12 776.261 360.499 775.674 360.776C775.098 361.053 774.431 361.192 773.674 361.192ZM780.002 361V349.08H787.682V350.28H781.282V354.424H787.362V355.624H781.282V359.8H787.682V361H780.002ZM789.799 361V349.08H791.079V359.8H796.359V361H789.799ZM798.299 361V349.08H805.979V350.28H799.579V354.424H805.659V355.624H799.579V359.8H805.979V361H798.299ZM813.536 361.192C812.693 361.192 811.92 361.043 811.216 360.744C810.512 360.435 809.898 360.008 809.376 359.464C808.864 358.909 808.464 358.259 808.176 357.512C807.888 356.765 807.743 355.944 807.743 355.048C807.743 354.152 807.888 353.331 808.176 352.584C808.464 351.837 808.864 351.187 809.376 350.632C809.898 350.077 810.512 349.651 811.216 349.352C811.92 349.043 812.693 348.888 813.536 348.888C814.346 348.888 815.072 349.032 815.712 349.32C816.362 349.608 816.906 349.981 817.344 350.44C817.792 350.888 818.112 351.363 818.304 351.864L817.104 352.392C816.805 351.699 816.346 351.144 815.727 350.728C815.12 350.301 814.389 350.088 813.536 350.088C812.661 350.088 811.882 350.296 811.2 350.712C810.517 351.128 809.984 351.709 809.6 352.456C809.216 353.192 809.024 354.056 809.024 355.048C809.024 356.029 809.216 356.893 809.6 357.64C809.984 358.387 810.517 358.968 811.2 359.384C811.882 359.789 812.661 359.992 813.536 359.992C814.389 359.992 815.12 359.784 815.727 359.368C816.346 358.952 816.805 358.397 817.104 357.704L818.304 358.232C818.112 358.723 817.792 359.197 817.344 359.656C816.906 360.104 816.362 360.472 815.712 360.76C815.072 361.048 814.346 361.192 813.536 361.192ZM822.66 361V350.28H819.364V349.08H827.204V350.28H823.94V361H822.66ZM828.783 361V349.08H836.463V350.28H830.063V354.424H836.143V355.624H830.063V359.8H836.463V361H828.783ZM838.58 361V349.08H842.5C843.684 349.08 844.713 349.325 845.588 349.816C846.463 350.296 847.14 350.984 847.62 351.88C848.1 352.765 848.34 353.816 848.34 355.032C848.34 356.237 848.1 357.288 847.62 358.184C847.14 359.08 846.463 359.773 845.588 360.264C844.713 360.755 843.684 361 842.5 361H838.58ZM839.86 359.8H842.5C843.417 359.8 844.212 359.608 844.884 359.224C845.556 358.829 846.073 358.275 846.436 357.56C846.809 356.845 846.996 356.003 846.996 355.032C846.996 354.061 846.809 353.224 846.436 352.52C846.063 351.805 845.54 351.256 844.868 350.872C844.196 350.477 843.407 350.28 842.5 350.28H839.86V359.8ZM851.798 362.92L857.206 349.736H858.598L853.19 362.92H851.798ZM862.752 361V349.08H864.032V354.44H870.432V349.08H871.712V361H870.432V355.64H864.032V361H862.752ZM880.149 361.192C879.317 361.192 878.538 361.043 877.813 360.744C877.098 360.435 876.469 360.008 875.925 359.464C875.381 358.909 874.954 358.259 874.645 357.512C874.336 356.755 874.181 355.928 874.181 355.032C874.181 354.136 874.336 353.315 874.645 352.568C874.954 351.811 875.381 351.16 875.925 350.616C876.469 350.061 877.098 349.635 877.813 349.336C878.538 349.037 879.317 348.888 880.149 348.888C880.981 348.888 881.754 349.043 882.469 349.352C883.194 349.651 883.829 350.077 884.373 350.632C884.917 351.176 885.344 351.821 885.653 352.568C885.962 353.315 886.117 354.136 886.117 355.032C886.117 355.928 885.962 356.755 885.653 357.512C885.344 358.259 884.917 358.909 884.373 359.464C883.829 360.008 883.194 360.435 882.469 360.744C881.754 361.043 880.981 361.192 880.149 361.192ZM880.149 359.992C880.842 359.992 881.472 359.864 882.037 359.608C882.613 359.352 883.109 358.995 883.525 358.536C883.941 358.077 884.261 357.549 884.485 356.952C884.72 356.355 884.837 355.715 884.837 355.032C884.837 354.36 884.72 353.725 884.485 353.128C884.261 352.531 883.941 352.003 883.525 351.544C883.109 351.085 882.613 350.728 882.037 350.472C881.472 350.216 880.842 350.088 880.149 350.088C879.456 350.088 878.821 350.216 878.245 350.472C877.68 350.728 877.189 351.085 876.773 351.544C876.357 352.003 876.032 352.531 875.797 353.128C875.573 353.725 875.461 354.36 875.461 355.032C875.461 355.715 875.573 356.355 875.797 356.952C876.032 357.549 876.357 358.077 876.773 358.536C877.189 358.995 877.685 359.352 878.261 359.608C878.837 359.864 879.466 359.992 880.149 359.992ZM891.403 361L887.035 349.08H888.363L892.203 359.864H891.947L895.771 349.08H897.115L892.747 361H891.403ZM898.705 361V349.08H906.385V350.28H899.985V354.424H906.065V355.624H899.985V359.8H906.385V361H898.705ZM908.502 361V349.08H912.598C913.376 349.08 914.059 349.235 914.646 349.544C915.232 349.843 915.686 350.269 916.006 350.824C916.336 351.368 916.502 352.003 916.502 352.728C916.502 353.571 916.278 354.291 915.83 354.888C915.392 355.485 914.795 355.907 914.038 356.152L916.822 361H915.318L912.406 355.864L913.27 356.36H909.782V361H908.502ZM909.782 355.16H912.662C913.174 355.16 913.622 355.064 914.006 354.872C914.39 354.669 914.688 354.387 914.902 354.024C915.115 353.651 915.222 353.213 915.222 352.712C915.222 352.211 915.115 351.779 914.902 351.416C914.688 351.053 914.39 350.776 914.006 350.584C913.622 350.381 913.174 350.28 912.662 350.28H909.782V355.16Z" fill="#7C7C8A"/>
<path d="M737.424 529.192C736.667 529.192 735.979 529.048 735.36 528.76C734.741 528.472 734.219 528.088 733.792 527.608C733.365 527.117 733.061 526.579 732.88 525.992L734.032 525.56C734.309 526.371 734.741 526.989 735.328 527.416C735.915 527.832 736.613 528.04 737.424 528.04C737.936 528.04 738.384 527.96 738.768 527.8C739.163 527.629 739.467 527.395 739.68 527.096C739.893 526.797 740 526.451 740 526.056C740 525.469 739.84 525.016 739.52 524.696C739.2 524.376 738.741 524.131 738.144 523.96L736 523.32C735.157 523.075 734.507 522.664 734.048 522.088C733.6 521.512 733.376 520.856 733.376 520.12C733.376 519.491 733.531 518.936 733.84 518.456C734.149 517.965 734.571 517.581 735.104 517.304C735.648 517.027 736.261 516.888 736.944 516.888C737.659 516.888 738.299 517.021 738.864 517.288C739.44 517.544 739.925 517.885 740.32 518.312C740.715 518.739 740.997 519.213 741.168 519.736L740.048 520.184C739.792 519.48 739.392 518.947 738.848 518.584C738.315 518.221 737.685 518.04 736.96 518.04C736.501 518.04 736.096 518.12 735.744 518.28C735.403 518.44 735.136 518.669 734.944 518.968C734.752 519.267 734.656 519.619 734.656 520.024C734.656 520.515 734.811 520.957 735.12 521.352C735.429 521.736 735.904 522.024 736.544 522.216L738.432 522.776C739.371 523.053 740.08 523.453 740.56 523.976C741.04 524.499 741.28 525.155 741.28 525.944C741.28 526.584 741.115 527.149 740.784 527.64C740.464 528.12 740.011 528.499 739.424 528.776C738.848 529.053 738.181 529.192 737.424 529.192ZM743.752 529V517.08H751.432V518.28H745.032V522.424H751.112V523.624H745.032V527.8H751.432V529H743.752ZM753.549 529V517.08H754.829V527.8H760.109V529H753.549ZM762.049 529V517.08H769.729V518.28H763.329V522.424H769.409V523.624H763.329V527.8H769.729V529H762.049ZM777.286 529.192C776.443 529.192 775.67 529.043 774.966 528.744C774.262 528.435 773.648 528.008 773.126 527.464C772.614 526.909 772.214 526.259 771.926 525.512C771.638 524.765 771.493 523.944 771.493 523.048C771.493 522.152 771.638 521.331 771.926 520.584C772.214 519.837 772.614 519.187 773.126 518.632C773.648 518.077 774.262 517.651 774.966 517.352C775.67 517.043 776.443 516.888 777.286 516.888C778.096 516.888 778.822 517.032 779.462 517.32C780.112 517.608 780.656 517.981 781.094 518.44C781.542 518.888 781.862 519.363 782.054 519.864L780.854 520.392C780.555 519.699 780.096 519.144 779.477 518.728C778.87 518.301 778.139 518.088 777.286 518.088C776.411 518.088 775.632 518.296 774.95 518.712C774.267 519.128 773.734 519.709 773.35 520.456C772.966 521.192 772.774 522.056 772.774 523.048C772.774 524.029 772.966 524.893 773.35 525.64C773.734 526.387 774.267 526.968 774.95 527.384C775.632 527.789 776.411 527.992 777.286 527.992C778.139 527.992 778.87 527.784 779.477 527.368C780.096 526.952 780.555 526.397 780.854 525.704L782.054 526.232C781.862 526.723 781.542 527.197 781.094 527.656C780.656 528.104 780.112 528.472 779.462 528.76C778.822 529.048 778.096 529.192 777.286 529.192ZM786.41 529V518.28H783.114V517.08H790.954V518.28H787.69V529H786.41ZM792.533 529V517.08H800.213V518.28H793.813V522.424H799.893V523.624H793.813V527.8H800.213V529H792.533ZM802.33 529V517.08H806.25C807.434 517.08 808.463 517.325 809.338 517.816C810.213 518.296 810.89 518.984 811.37 519.88C811.85 520.765 812.09 521.816 812.09 523.032C812.09 524.237 811.85 525.288 811.37 526.184C810.89 527.08 810.213 527.773 809.338 528.264C808.463 528.755 807.434 529 806.25 529H802.33ZM803.61 527.8H806.25C807.167 527.8 807.962 527.608 808.634 527.224C809.306 526.829 809.823 526.275 810.186 525.56C810.559 524.845 810.746 524.003 810.746 523.032C810.746 522.061 810.559 521.224 810.186 520.52C809.813 519.805 809.29 519.256 808.618 518.872C807.946 518.477 807.157 518.28 806.25 518.28H803.61V527.8ZM815.548 530.92L820.956 517.736H822.348L816.94 530.92H815.548ZM826.502 529V517.08H830.422C831.606 517.08 832.635 517.325 833.51 517.816C834.384 518.296 835.062 518.984 835.542 519.88C836.022 520.765 836.262 521.816 836.262 523.032C836.262 524.237 836.022 525.288 835.542 526.184C835.062 527.08 834.384 527.773 833.51 528.264C832.635 528.755 831.606 529 830.422 529H826.502ZM827.782 527.8H830.422C831.339 527.8 832.134 527.608 832.806 527.224C833.478 526.829 833.995 526.275 834.358 525.56C834.731 524.845 834.918 524.003 834.918 523.032C834.918 522.061 834.731 521.224 834.358 520.52C833.984 519.805 833.462 519.256 832.79 518.872C832.118 518.477 831.328 518.28 830.422 518.28H827.782V527.8ZM838.377 529V517.08H846.057V518.28H839.657V522.424H845.737V523.624H839.657V527.8H846.057V529H838.377ZM848.174 529V517.08H855.534V518.28H849.454V522.424H855.054V523.624H849.454V529H848.174ZM855.442 529L859.794 517.08H861.17L865.522 529H864.178L863.154 526.088H857.826L856.786 529H855.442ZM858.242 524.888H862.706L860.29 518.04H860.674L858.242 524.888ZM870.991 529.192C870.148 529.192 869.407 529.016 868.767 528.664C868.127 528.312 867.631 527.832 867.279 527.224C866.927 526.605 866.751 525.901 866.751 525.112V517.08H868.031V525.112C868.031 525.688 868.153 526.195 868.399 526.632C868.655 527.059 869.001 527.395 869.439 527.64C869.887 527.875 870.404 527.992 870.991 527.992C871.577 527.992 872.089 527.875 872.527 527.64C872.975 527.395 873.321 527.059 873.567 526.632C873.823 526.195 873.951 525.688 873.951 525.112V517.08H875.231V525.112C875.231 525.901 875.055 526.605 874.703 527.224C874.351 527.832 873.855 528.312 873.215 528.664C872.585 529.016 871.844 529.192 870.991 529.192ZM878.002 529V517.08H879.282V527.8H884.562V529H878.002ZM887.613 529V518.28H884.317V517.08H892.157V518.28H888.893V529H887.613Z" fill="#7C7C8A"/>
</svg>
